<?xml version="1.0" standalone="no"?>
<!DOCTYPE svg PUBLIC "-//W3C//DTD SVG 20010904//EN"
 "http://www.w3.org/TR/2001/REC-SVG-20010904/DTD/svg10.dtd">
<svg version="1.0" xmlns="http://www.w3.org/2000/svg"
 width="688.000000pt" height="688.000000pt" viewBox="0 0 688.000000 688.000000"
 preserveAspectRatio="xMidYMid meet">
<metadata>
Created by potrace 1.14, written by Peter Selinger 2001-2017
</metadata>
<g transform="translate(0.000000,688.000000) scale(0.100000,-0.100000)"
fill="#000000" stroke="none">
<path d="M3638 6156 l-108 -40 -1 -116 c-2 -208 -2 -210 -24 -223 -11 -6 -22
-12 -25 -12 -3 -1 -29 -9 -57 -19 l-52 -17 -3 -152 -3 -151 -55 -22 -55 -22
-3 -70 -3 -71 118 40 c65 23 123 42 128 43 6 2 17 6 25 9 8 3 65 22 125 42 61
20 119 41 130 46 11 5 29 11 40 14 41 9 290 99 295 106 5 7 5 123 1 150 -1 4
-36 -6 -78 -22 -42 -16 -79 -26 -81 -24 -3 2 -6 66 -8 141 -1 75 -5 138 -8
141 -2 3 -43 -8 -89 -25 l-85 -29 0 76 c-1 168 -4 241 -10 244 -4 2 -55 -14
-114 -37z"/>
<path d="M2545 3995 c0 -943 2 -1715 4 -1715 5 0 529 256 581 285 l45 24 0
1443 0 1443 -135 53 c-74 29 -142 55 -150 59 -87 35 -325 123 -334 123 -8 0
-11 -445 -11 -1715z m338 1412 l212 -72 1 -42 c1 -24 -1 -43 -5 -43 -4 0 -65
21 -137 46 -71 25 -165 58 -210 74 -110 38 -121 45 -118 72 1 13 3 29 3 36 1
9 8 11 21 7 12 -4 116 -39 233 -78z m-43 -326 c96 -22 191 -43 210 -46 19 -3
36 -8 39 -10 2 -3 5 -24 6 -48 l3 -44 -42 9 c-22 5 -50 12 -61 14 -11 3 -29 7
-40 9 -194 43 -319 75 -324 84 -6 8 -6 36 -2 73 1 4 9 5 19 3 9 -2 96 -22 192
-44z m-130 -325 c30 -4 71 -9 90 -11 19 -2 58 -7 85 -10 165 -20 198 -25 204
-30 3 -3 5 -24 6 -46 l1 -40 -50 6 c-28 3 -69 9 -91 12 -41 5 -55 7 -140 17
-27 3 -75 8 -105 12 -30 4 -61 7 -67 7 -7 0 -13 7 -14 16 -1 9 -2 27 -2 41 -2
24 10 43 23 35 3 -1 30 -6 60 -9z m325 -360 l60 -2 1 -34 c1 -57 0 -57 -94
-53 -48 2 -149 5 -225 6 -90 2 -141 7 -146 15 -5 9 -6 36 -2 74 1 6 91 4 406
-6z m60 -360 c1 -20 -1 -39 -5 -41 -7 -4 -73 -10 -240 -21 -186 -12 -220 -13
-221 -6 -5 43 -2 75 6 78 10 3 110 9 315 20 58 4 106 7 108 9 2 2 11 2 20 1
12 -2 17 -14 17 -40z m-4 -273 c1 -5 2 -25 3 -45 2 -40 -1 -42 -59 -53 -16 -3
-68 -12 -115 -20 -47 -8 -95 -17 -106 -19 -12 -2 -39 -7 -60 -11 -37 -5 -83
-13 -107 -18 -7 -1 -13 15 -15 40 -3 47 -11 41 90 63 26 5 66 12 90 15 24 3
93 16 153 29 61 13 113 24 118 25 4 0 8 -2 8 -6z m5 -351 c1 -48 30 -35 -246
-116 -102 -30 -192 -57 -202 -61 -19 -7 -26 14 -20 57 3 17 12 30 26 33 11 4
68 21 126 39 147 46 214 66 222 67 4 0 22 6 40 14 45 19 52 15 54 -33z m-1
-324 l0 -42 -230 -88 c-132 -50 -232 -83 -235 -78 -10 17 -2 75 12 83 17 11
430 166 443 166 6 1 11 -18 10 -41z m0 -315 c1 -35 0 -36 -100 -83 -55 -26
-158 -75 -228 -110 -71 -34 -131 -59 -134 -56 -3 3 -6 21 -7 40 -1 31 3 37 39
55 36 17 211 100 365 173 30 14 57 24 60 21 3 -3 5 -21 5 -40z"/>
<path d="M2405 5592 c-33 -47 -65 -90 -70 -96 -6 -6 -33 -42 -60 -81 -27 -38
-52 -72 -55 -75 -3 -3 -16 -19 -28 -37 l-22 -31 0 -1328 0 -1327 152 -153 c84
-84 154 -151 157 -149 2 3 3 249 2 547 -1 299 -3 1053 -5 1675 -1 623 -4 1134
-7 1137 -2 2 -31 -35 -64 -82z"/>
<path d="M4190 3934 c0 -1388 3 -1734 13 -1727 6 6 89 50 182 98 94 48 194
101 223 117 l52 29 0 72 c1 82 0 422 0 1832 l-1 1000 -234 158 -235 158 0
-1737z m128 1556 c12 -12 22 -28 23 -38 0 -9 2 -697 4 -1527 l3 -1510 -26 -13
c-14 -6 -29 -12 -33 -12 -3 0 -7 478 -7 1063 -1 584 -2 1274 -2 1532 -1 259
-1 475 0 480 1 6 2 18 1 28 -3 23 10 22 37 -3z m133 -91 l24 -21 3 -876 c1
-483 3 -881 3 -887 1 -5 1 -30 0 -55 -1 -40 -3 -209 -2 -250 3 -159 1 -312 -4
-320 -3 -6 -3 -10 2 -10 4 0 8 -54 8 -120 0 -66 -3 -120 -7 -120 -4 0 -4 -12
0 -27 6 -23 8 -151 3 -214 -1 -13 -39 -39 -56 -39 -2 0 -4 440 -5 978 -2 2193
-2 1982 3 1982 2 0 15 -9 28 -21z m145 -101 c9 -14 9 -2731 0 -2746 -4 -7 -16
-17 -27 -22 -19 -11 -19 6 -19 1395 0 1389 0 1406 19 1395 11 -5 23 -15 27
-22z"/>
<path d="M3955 5349 c-83 -27 -157 -53 -165 -56 -8 -3 -19 -7 -25 -9 -5 -1
-116 -39 -245 -84 -129 -45 -243 -84 -252 -87 -15 -4 -17 -18 -17 -89 0 -58 4
-84 12 -84 7 0 64 14 127 31 164 43 542 140 560 144 8 2 35 9 60 16 25 7 54
14 65 16 11 2 24 8 29 13 10 10 16 240 6 240 -3 0 -73 -23 -155 -51z"/>
<path d="M3925 4980 c-99 -26 -288 -75 -420 -109 -131 -35 -243 -64 -247 -67
-7 -4 -9 -153 -2 -165 2 -4 25 -2 51 2 89 17 108 21 133 25 14 2 41 6 60 9 19
3 44 7 55 9 22 4 265 45 305 52 14 2 66 11 115 19 50 9 101 18 115 21 l25 5 0
124 c0 69 -2 124 -5 124 -3 -1 -86 -23 -185 -49z"/>
<path d="M4957 4740 c-54 -33 -103 -60 -108 -60 -5 0 -9 -4 -9 -10 0 -5 -5
-10 -11 -10 -6 0 -30 -13 -54 -30 -24 -16 -47 -30 -52 -30 -5 0 -8 -415 -8
-922 l1 -921 96 -76 c52 -42 111 -88 129 -103 93 -74 112 -88 117 -84 2 3 4
279 3 613 -2 961 -4 1693 -5 1693 -1 0 -45 -27 -99 -60z"/>
<path d="M3960 4624 c-74 -13 -151 -26 -170 -29 -19 -3 -61 -10 -93 -16 -32
-5 -70 -12 -85 -14 -15 -1 -79 -12 -142 -23 -63 -12 -135 -24 -160 -27 -24 -4
-48 -9 -52 -11 -4 -3 -6 -42 -5 -87 2 -94 -15 -85 137 -73 47 4 108 9 135 11
28 2 79 7 115 10 36 3 92 8 125 10 33 3 83 7 110 10 28 2 90 7 140 11 49 3 92
9 95 14 4 7 5 204 1 233 -1 4 -4 7 -8 6 -5 -1 -69 -12 -143 -25z"/>
<path d="M1839 4593 c-5 -41 -3 -1893 2 -1893 6 0 95 68 125 95 6 5 21 17 34
25 31 22 81 62 105 85 20 20 21 25 20 772 -1 551 -5 756 -13 766 -6 7 -30 22
-52 33 -22 10 -40 22 -40 27 0 4 -4 7 -9 7 -5 0 -44 20 -85 45 -81 47 -85 49
-87 38z"/>
<path d="M5125 4093 c0 -197 -3 -370 -7 -385 -3 -14 -3 -29 0 -32 3 -4 5 -37
3 -74 -4 -135 -5 -831 0 -836 6 -6 196 91 204 105 4 5 8 329 10 718 l3 709
-94 71 c-51 39 -99 74 -106 76 -11 4 -13 -64 -13 -352z"/>
<path d="M1715 4348 c-38 -21 -93 -49 -121 -64 -45 -24 -50 -29 -46 -55 l4
-28 107 56 c125 65 134 73 129 104 l-3 25 -70 -38z"/>
<path d="M4067 4274 c-1 -1 -45 -5 -97 -9 -52 -4 -108 -9 -125 -10 -121 -11
-197 -17 -240 -20 -27 -3 -75 -6 -105 -9 -30 -3 -95 -8 -145 -12 -49 -3 -94
-9 -98 -13 -4 -4 -7 -46 -5 -92 l3 -84 420 -1 c231 0 425 1 430 3 8 3 13 202
6 245 -1 6 -38 7 -44 2z"/>
<path d="M1663 4189 c-110 -58 -113 -61 -113 -93 l0 -34 83 33 c169 66 157 58
157 109 0 26 -3 46 -7 46 -5 0 -59 -27 -120 -61z"/>
<path d="M1725 4064 c-27 -13 -78 -34 -112 -46 -59 -22 -63 -25 -63 -55 0 -17
3 -34 8 -36 4 -3 58 9 120 26 l112 31 0 40 c0 62 -8 66 -65 40z"/>
<path d="M1736 3903 c-1 -2 -43 -11 -92 -21 l-89 -18 -3 -42 c-3 -40 -2 -42
20 -37 13 3 40 7 61 10 20 3 54 7 75 10 81 11 82 11 82 60 0 42 -2 45 -26 43
-14 -2 -26 -4 -28 -5z"/>
<path d="M3363 3902 l-111 -3 -1 -88 c-1 -64 2 -88 11 -88 7 -1 40 -4 73 -7
33 -3 89 -8 125 -11 36 -3 88 -8 115 -10 28 -3 79 -7 115 -10 36 -3 84 -7 106
-9 64 -7 224 -19 274 -20 l44 -1 1 105 c1 58 -1 113 -3 122 -4 16 -31 18 -321
20 -174 2 -366 2 -428 0z"/>
<path d="M1687 3734 c-2 -1 -100 -12 -129 -14 -5 0 -8 -18 -8 -40 0 -45 -10
-41 115 -41 138 0 125 -6 125 51 l0 51 -50 -2 c-28 -2 -51 -4 -53 -5z"/>
<path d="M3252 3507 l3 -92 59 -12 c32 -6 77 -14 100 -17 23 -3 52 -8 66 -11
14 -3 40 -7 58 -10 17 -3 47 -7 65 -10 17 -3 43 -7 57 -10 14 -3 41 -8 60 -10
19 -3 46 -7 60 -10 13 -2 40 -7 60 -10 20 -3 47 -8 60 -10 14 -3 41 -7 60 -10
19 -3 46 -7 60 -10 51 -12 90 -15 91 -8 4 34 4 235 0 242 -4 5 -42 12 -86 15
-84 7 -143 12 -235 21 -30 3 -86 7 -125 10 -38 3 -90 7 -115 10 -133 12 -181
16 -238 20 l-63 3 3 -91z"/>
<path d="M1550 3540 c0 -31 4 -40 18 -41 32 -2 70 -8 128 -18 95 -18 94 -19
94 43 l0 54 -120 1 -120 1 0 -40z"/>
<path d="M1550 3400 c0 -24 5 -42 13 -44 6 -2 29 -9 49 -15 20 -7 46 -14 56
-16 11 -2 37 -8 58 -14 62 -17 64 -16 64 43 l0 54 -48 7 c-26 3 -61 8 -77 10
-17 3 -49 7 -72 10 l-43 5 0 -40z"/>
<path d="M1550 3266 c0 -33 -5 -30 211 -124 l29 -12 0 49 c0 47 -1 50 -34 61
-19 6 -46 13 -60 16 -13 2 -52 13 -85 23 l-61 19 0 -32z"/>
<path d="M3256 3281 c-3 -5 -5 -42 -5 -84 l1 -75 96 -25 c412 -109 562 -148
578 -152 11 -2 35 -9 54 -14 67 -19 115 -31 125 -31 8 0 13 174 6 236 0 6 -18
14 -38 18 -21 3 -51 8 -68 11 -87 16 -145 25 -185 31 -57 8 -77 11 -115 18
-33 6 -153 25 -200 32 -16 3 -55 9 -85 15 -30 6 -75 12 -99 15 -24 2 -47 7
-52 9 -4 3 -10 1 -13 -4z"/>
<path d="M1550 3121 c0 -16 6 -33 13 -39 20 -16 207 -112 218 -112 6 0 9 20 7
46 l-3 47 -115 43 c-63 24 -116 44 -117 44 -2 0 -3 -13 -3 -29z"/>
<path d="M1551 2998 c0 -18 26 -41 105 -96 135 -94 134 -94 134 -45 0 34 -4
41 -37 58 -21 11 -72 39 -114 62 -42 24 -80 43 -83 43 -3 0 -6 -10 -5 -22z"/>
<path d="M3253 2898 l2 -82 420 -142 c231 -79 425 -143 430 -143 8 -1 13 192
6 230 -1 6 -118 40 -181 53 -14 3 -151 37 -305 77 -312 79 -309 78 -347 85
l-27 5 2 -83z"/>
<path d="M3250 2630 l0 -51 48 -21 c26 -11 65 -28 87 -38 106 -47 351 -152
440 -190 137 -58 225 -97 258 -114 15 -9 27 -12 28 -8 4 27 4 174 -1 181 -4 6
-353 127 -395 137 -5 2 -101 34 -212 72 -278 96 -253 93 -253 32z"/>
<path d="M3045 2138 c-51 -29 -60 -84 -20 -123 29 -30 73 -33 105 -7 41 33 32
109 -17 131 -30 14 -43 13 -68 -1z"/>
<path d="M83 1855 l-83 -82 0 -464 0 -464 83 -83 82 -82 70 0 70 0 82 83 82
82 0 233 c0 210 -2 232 -17 233 -21 2 -122 2 -139 0 -10 -1 -13 -48 -13 -198
0 -195 0 -196 -26 -230 -14 -18 -31 -33 -38 -33 -7 0 -26 15 -42 33 l-29 32 2
393 1 393 27 35 c14 18 31 34 38 34 7 0 23 -14 37 -32 21 -27 26 -45 30 -122
l5 -91 80 0 80 0 1 123 1 123 -79 81 -79 81 -71 2 -71 2 -84 -82z"/>
<path d="M614 1925 c-3 -6 -3 -98 -2 -205 l3 -195 80 0 80 0 0 112 c1 62 4
116 9 120 4 4 57 8 117 9 123 0 120 7 38 -76 l-36 -36 0 -397 c0 -218 -2 -399
-5 -402 -2 -3 -23 -6 -46 -7 l-42 -1 0 -84 0 -83 175 0 175 0 1 33 c2 77 0
117 -6 127 -4 7 -24 10 -46 8 l-39 -4 0 461 0 461 60 0 c71 1 68 4 69 -121 0
-49 0 -97 0 -106 1 -13 15 -16 84 -15 l82 1 1 203 c0 177 -2 202 -15 203 -9 0
-177 2 -375 2 -238 1 -360 -1 -362 -8z"/>
<path d="M1519 1930 c-5 -22 -4 -147 2 -155 4 -6 37 -10 73 -9 36 0 66 -1 66
-2 0 -2 -24 -27 -53 -56 l-53 -53 1 -400 c1 -393 0 -400 -20 -405 -18 -5 -20
-14 -20 -85 l0 -80 173 -3 172 -2 0 83 0 84 -42 0 c-24 1 -55 1 -69 2 l-26 1
0 144 0 143 69 2 68 2 80 82 80 82 0 233 0 234 -80 81 -79 82 -171 0 c-93 0
-171 -2 -171 -5z m305 -195 c28 -33 28 -30 28 -229 l0 -139 -28 -28 c-29 -28
-72 -43 -91 -31 -6 5 -9 89 -8 232 1 124 3 225 3 226 1 0 17 0 36 0 25 -1 41
-9 60 -31z"/>
<path d="M2273 1852 l-83 -83 0 -462 0 -463 83 -82 84 -82 74 1 74 1 76 82 77
82 0 463 0 463 -80 81 -80 82 -71 0 -72 1 -82 -84z m189 -114 l28 -33 0 -396
0 -396 -33 -37 -32 -38 -33 36 -33 36 1 168 c0 92 0 174 1 182 0 8 0 83 0 165
0 83 0 157 0 165 0 8 0 20 -1 25 -9 41 3 93 27 123 15 17 32 32 37 32 6 0 23
-15 38 -32z"/>
<path d="M2812 1850 l3 -84 68 0 c37 0 67 -2 67 -4 0 -3 -24 -27 -52 -54 l-53
-50 -1 -400 c-1 -361 -3 -401 -18 -410 -13 -7 -16 -25 -16 -88 l0 -80 115 0
c63 0 116 3 116 8 1 4 2 40 3 81 1 63 -1 75 -16 79 -17 4 -18 23 -18 241 l0
237 65 63 c36 35 65 62 66 60 0 -2 1 -138 2 -302 2 -277 1 -297 -15 -297 -16
0 -18 -11 -18 -85 l0 -85 118 0 117 0 -1 68 c-2 100 -3 102 -19 102 -13 0 -15
58 -15 461 0 394 2 460 14 456 19 -8 22 5 21 93 l-1 74 -108 1 c-59 0 -112 -3
-117 -6 -15 -9 -7 -165 9 -162 13 3 13 2 15 -67 2 -42 -1 -48 -63 -110 l-65
-65 -3 110 c-3 113 1 141 18 130 12 -7 12 -10 14 88 1 42 -1 77 -4 78 -3 0
-56 1 -118 2 l-113 2 3 -85z"/>
<path d="M3447 1932 c-20 -4 -19 11 -19 -207 0 -96 1 -181 1 -189 1 -11 20
-13 84 -12 l82 1 0 118 c0 64 2 118 5 118 19 5 220 5 220 0 0 -3 -22 -28 -50
-56 l-49 -50 -1 -402 c0 -446 6 -406 -62 -405 l-28 1 0 -85 0 -84 175 0 176 0
-3 83 -3 82 -42 0 -43 -1 0 461 0 461 63 0 62 -1 0 -118 c0 -64 2 -118 5 -118
3 -1 41 -3 85 -4 l80 -2 0 203 c0 130 -3 204 -10 205 -31 3 -714 3 -728 1z"/>
<path d="M4347 1930 c-14 -5 -19 -151 -6 -160 4 -3 37 -5 73 -4 73 0 73 4 2
-68 l-43 -43 2 -390 c0 -214 -1 -396 -3 -402 -2 -7 -10 -13 -18 -13 -17 0 -16
3 -19 -92 l-2 -78 173 0 174 0 0 85 0 84 -52 0 c-29 -1 -61 -1 -70 0 -15 1
-17 15 -15 144 l2 142 35 2 c19 1 49 2 66 2 25 1 47 17 112 82 l80 82 1 235 0
235 -80 81 -80 81 -160 0 c-88 0 -165 -2 -172 -5z m297 -195 c20 -23 26 -41
26 -80 3 -255 2 -273 -16 -304 -19 -32 -55 -49 -90 -43 -21 3 -21 7 -22 210 0
114 1 216 4 228 6 34 66 27 98 -11z"/>
<path d="M4999 1932 c-12 -2 -15 -19 -14 -78 0 -45 6 -78 12 -82 7 -4 37 -7
67 -6 31 0 56 -2 56 -5 0 -3 -21 -27 -47 -54 l-48 -48 -1 -402 c-1 -221 -2
-405 -3 -408 0 -4 -9 -6 -18 -5 -15 1 -17 -10 -18 -79 l0 -80 249 0 249 0 0
225 c-1 124 -2 230 -2 236 -1 6 -33 11 -84 11 l-82 0 0 -153 c1 -141 -1 -154
-17 -155 -10 0 -37 -1 -60 -1 l-43 -1 0 244 0 244 100 0 100 0 2 83 c1 57 -2
82 -10 83 -7 1 -52 2 -102 3 l-90 1 0 130 0 130 58 1 c35 1 57 -3 58 -10 1 -6
2 -38 3 -71 l1 -60 83 -1 c68 -1 82 2 83 15 1 21 1 250 0 276 -1 19 -8 20
-234 20 -128 0 -240 -1 -248 -3z"/>
<path d="M5660 1932 c-15 -5 -13 -162 3 -163 6 -1 33 -1 60 -1 26 0 47 -3 47
-7 0 -4 -20 -26 -43 -49 l-44 -43 1 -402 c1 -371 0 -403 -16 -416 -14 -12 -18
-32 -18 -93 l0 -78 118 0 117 0 -1 78 c-3 98 -2 92 -19 92 -13 0 -15 33 -15
235 0 181 3 235 13 236 61 5 110 3 115 -5 3 -5 5 -111 5 -234 0 -197 -2 -226
-17 -234 -13 -7 -16 -25 -16 -88 l0 -80 114 0 c82 0 115 3 118 13 3 10 3 84
-1 140 0 9 -8 17 -16 17 -13 0 -15 57 -15 456 0 426 1 456 18 460 14 4 17 16
16 77 -1 40 -2 77 -3 82 -1 8 -166 12 -224 6 -4 -1 -7 -38 -5 -83 2 -60 6 -82
16 -81 6 2 12 -3 13 -10 1 -20 1 -188 0 -229 l-1 -38 -65 0 -66 0 3 138 c2
103 6 136 16 135 14 -3 13 -5 16 95 1 39 -1 72 -4 73 -18 3 -212 3 -220 1z"/>
<path d="M6450 1853 l-81 -81 0 -460 c0 -439 -1 -460 -19 -465 -14 -4 -19 -16
-22 -63 -1 -33 -2 -69 0 -81 l3 -23 275 0 274 0 0 85 c0 82 -1 85 -23 85 l-24
0 1 530 c1 292 -1 536 -4 543 -4 9 -46 12 -152 12 l-146 0 -82 -82z m211 -92
c1 -3 2 -210 3 -458 1 -363 -1 -453 -11 -454 -7 0 -31 -1 -53 -1 -22 0 -46 1
-53 1 -9 1 -12 92 -12 426 l1 426 25 32 c21 26 34 33 63 34 20 0 37 -2 37 -6z"/>
</g>
</svg>
