<svg xmlns="http://www.w3.org/2000/svg" width="45" height="36" fill="none"><path d="M19.19 20.59a2.799 2.799 0 100-5.598 2.799 2.799 0 000 5.597zm8.396 0a2.798 2.798 0 100-5.598 2.798 2.798 0 000 5.597zm8.394 0a2.799 2.799 0 100-5.598 2.799 2.799 0 000 5.597zm-25.185 0a2.798 2.798 0 100-5.598 2.798 2.798 0 000 5.597z" stroke="#E9B33D" stroke-width="1.1" stroke-miterlimit="10" stroke-linecap="round" stroke-linejoin="round"/><path d="M2.4 23.388v-2.173a.71.71 0 01.58-.686 2.8 2.8 0 000-5.476.71.71 0 01-.58-.687v-2.172h41.278a.7.7 0 01.7.7v1.472a.71.71 0 01-.58.687 2.8 2.8 0 000 5.476.71.71 0 01.58.687v1.472a.7.7 0 01-.7.7h-.7M17.79 31.783a2.798 2.798 0 100-5.597 2.798 2.798 0 000 5.597zm8.397 0a2.798 2.798 0 100-5.597 2.798 2.798 0 000 5.597zm8.395 0a2.798 2.798 0 100-5.597 2.798 2.798 0 000 5.597zm-25.186 0a2.798 2.798 0 100-5.597 2.798 2.798 0 000 5.597z" stroke="#E9B33D" stroke-width="1.1" stroke-miterlimit="10" stroke-linecap="round" stroke-linejoin="round"/><path d="M38.78 23.388h4.197v2.172a.71.71 0 01-.58.686 2.8 2.8 0 000 5.477.71.71 0 01.58.686v1.473a.7.7 0 01-.7.7H1.7a.7.7 0 01-.7-.7V32.41a.71.71 0 01.58-.686 2.8 2.8 0 000-5.476.71.71 0 01-.58-.687v-1.473a.7.7 0 01.7-.7h34.28M15.368 5.198a2.799 2.799 0 102.424-1.4m8.395 5.597a2.798 2.798 0 100-5.597 2.798 2.798 0 000 5.597zm8.395 0a2.798 2.798 0 100-5.597 2.798 2.798 0 000 5.597zm-25.186 0a2.798 2.798 0 100-5.597 2.798 2.798 0 000 5.597z" stroke="#E9B33D" stroke-width="1.1" stroke-miterlimit="10" stroke-linecap="round" stroke-linejoin="round"/><path d="M1 3.172V1.7a.7.7 0 01.7-.7h40.577a.7.7 0 01.7.7v1.472a.71.71 0 01-.58.687 2.8 2.8 0 000 5.476.71.71 0 01.58.687v2.172H1.7a.7.7 0 01-.7-.7v-1.472a.71.71 0 01.58-.687 2.8 2.8 0 000-5.476.71.71 0 01-.58-.687z" stroke="#E9B33D" stroke-width="1.1" stroke-miterlimit="10" stroke-linecap="round" stroke-linejoin="round"/></svg>