<svg xmlns="http://www.w3.org/2000/svg" width="34" height="43" fill="none"><path d="M6.056 17.382a.62.62 0 10-1.241.044c.029.798.136 1.592.32 2.37a12.041 12.041 0 004.352 6.79 12.268 12.268 0 007.507 2.597c.943 0 1.883-.11 2.801-.328 6.54-1.543 10.604-8.12 9.061-14.66a12.044 12.044 0 00-4.353-6.79 12.265 12.265 0 00-7.507-2.598c-.938 0-1.88.11-2.8.328a12.1 12.1 0 00-7.56 5.458 12.213 12.213 0 00-1.585 3.981.621.621 0 101.216.25 10.984 10.984 0 011.425-3.579 10.866 10.866 0 016.788-4.902 10.952 10.952 0 012.516-.294c2.42 0 4.814.829 6.743 2.334a10.814 10.814 0 013.908 6.097c1.386 5.874-2.264 11.78-8.138 13.167a10.94 10.94 0 01-2.515.294 11.02 11.02 0 01-6.743-2.334 10.812 10.812 0 01-3.908-6.097 10.956 10.956 0 01-.287-2.128z" fill="#E9B33D"/><path d="M22.204 8.927a9.59 9.59 0 00-5.207-1.545c-.738 0-1.481.087-2.209.258a9.55 9.55 0 00-5.961 4.306 9.544 9.544 0 00-1.185 7.257 9.488 9.488 0 003.431 5.353 9.678 9.678 0 005.923 2.053c.74 0 1.483-.088 2.209-.26a9.548 9.548 0 005.964-4.303 9.545 9.545 0 001.183-7.259 9.459 9.459 0 00-1.973-3.947.62.62 0 10-.95.799 8.228 8.228 0 011.714 3.433 8.311 8.311 0 01-1.03 6.321 8.314 8.314 0 01-5.194 3.748c-.63.15-1.276.225-1.923.226a8.43 8.43 0 01-5.159-1.79 8.258 8.258 0 01-2.986-4.66A8.31 8.31 0 019.883 12.6a8.316 8.316 0 015.19-3.75 8.397 8.397 0 011.924-.226c1.6 0 3.168.466 4.534 1.347a.62.62 0 00.673-1.043z" fill="#E9B33D"/><path d="M32.833 17.012l1.136-4.225a.621.621 0 00-.16-.6l-3.09-3.096-1.128-4.227a.62.62 0 00-.439-.44l-4.224-1.136-3.09-3.097a.62.62 0 00-.6-.16l-4.226 1.127L12.787.02a.62.62 0 00-.6.16L9.091 3.27 4.864 4.4a.621.621 0 00-.44.439L3.289 9.062l-3.097 3.09a.621.621 0 00-.16.6l1.127 4.227L.02 21.203a.62.62 0 00.16.6L3.27 24.9l1.13 4.226a.621.621 0 00.439.44l1.645.442-4.764 8.254c-.273.675.072 1.02.698.91l3.724-.998.998 3.724c.148.553.82.667 1.137.15l4.705-8.149 2.838-.758a.621.621 0 00-.32-1.2l-2.72.727-2.955-2.96a.621.621 0 00-.278-.162l-4.04-1.086-1.077-4.041a.621.621 0 00-.16-.279l-2.955-2.96L2.4 17.14a.621.621 0 000-.32l-1.078-4.042 2.961-2.954a.62.62 0 00.161-.278l1.087-4.04L9.57 4.43a.62.62 0 00.28-.16l2.96-2.955L16.85 2.4a.622.622 0 00.321 0l4.041-1.078 2.955 2.961a.62.62 0 00.278.161l4.039 1.087 1.078 4.04a.62.62 0 00.16.28l2.955 2.96-1.087 4.039a.62.62 0 000 .32l1.078 4.042-2.96 2.955a.621.621 0 00-.162.278l-1.086 4.039-4.041 1.078a.621.621 0 00-.279.16l-2.96 2.955-2.654-.715a.621.621 0 10-.323 1.199l2.87.773 4.683 8.114c.267.46.994.49 1.138-.15l.997-3.724 3.724.998c.667.151.97-.277.698-.91l-4.763-8.25 1.576-.421a.621.621 0 00.44-.439l1.137-4.224 3.096-3.09a.621.621 0 00.162-.6l-1.128-4.226zM9.49 31.132l-1.865 3.23c-.456.79.678 1.316 1.075.62l1.699-2.94 1.407 1.41-3.856 6.677-.77-2.876c-.133-.357-.386-.503-.761-.44l-2.875.771 4.18-7.242 1.338.36.428.43zm20.998 6.452l-2.875-.77c-.375-.064-.628.083-.76.439l-.77 2.875-3.88-6.718 1.409-1.406 1.72 2.979c.521.822 1.53.168 1.075-.621l-1.885-3.266.378-.377 1.408-.376 4.18 7.241z" fill="#E9B33D"/><path d="M22.276 15.491a1.082 1.082 0 00-.88-.741l-2.365-.344-1.057-2.143a1.082 1.082 0 00-.977-.607c-.418 0-.792.232-.977.607l-1.057 2.143-2.366.344c-.413.06-.75.344-.879.741a1.082 1.082 0 00.276 1.116l1.711 1.669-.404 2.355c-.07.412.096.82.434 1.066.374.247.756.275 1.146.082l2.116-1.112 2.116 1.112c.37.195.809.163 1.146-.082.338-.246.504-.654.434-1.066l-.404-2.355L22 16.607a1.083 1.083 0 00.276-1.116zm-3.088 2.123a.622.622 0 00-.178.55l.406 2.372-2.13-1.12a.62.62 0 00-.578 0l-2.13 1.12.407-2.372a.621.621 0 00-.179-.55l-1.723-1.68 2.381-.346a.622.622 0 00.468-.34l1.065-2.158 1.065 2.158a.62.62 0 00.468.34l2.382.346-1.724 1.68z" fill="#E9B33D"/></svg>