<svg xmlns="http://www.w3.org/2000/svg" width="42" height="37" fill="none"><path d="M31.653 18.401c-1.72 0-3.343.561-4.697 1.622a.614.614 0 00.758.966 6.33 6.33 0 013.94-1.36 6.403 6.403 0 016.395 6.396 6.403 6.403 0 01-6.396 6.396 6.403 6.403 0 01-6.395-6.396 6.38 6.38 0 01.98-3.4.615.615 0 00-1.04-.654 7.603 7.603 0 00-1.169 4.054c0 4.204 3.42 7.625 7.624 7.625 4.205 0 7.625-3.42 7.625-7.625 0-4.203-3.42-7.624-7.625-7.624z" fill="#E9B33D"/><path d="M36.473 26.328H32.27v-4.204a.614.614 0 00-1.229 0v4.818a.615.615 0 00.614.614h4.818a.614.614 0 000-1.228z" fill="#E9B33D"/><path d="M37.532 17.517V6.86a2.907 2.907 0 00-2.903-2.903H33.31V2.446A2.449 2.449 0 0030.864 0a2.449 2.449 0 00-2.445 2.446v1.512h-3.174V2.446A2.449 2.449 0 0022.799 0a2.449 2.449 0 00-2.446 2.446v1.512H17.18V2.446A2.449 2.449 0 0014.734 0a2.449 2.449 0 00-2.446 2.446v1.512H9.114V2.446A2.449 2.449 0 006.668 0a2.449 2.449 0 00-2.446 2.446v1.512H2.904A2.907 2.907 0 000 6.86v.303a.614.614 0 001.228 0V6.86c0-.923.752-1.675 1.676-1.675h1.318v1.512a2.449 2.449 0 002.446 2.446 2.449 2.449 0 002.446-2.446V5.186h3.173v1.512a2.449 2.449 0 002.446 2.446 2.449 2.449 0 002.446-2.446V5.186h3.174v1.512a2.449 2.449 0 002.446 2.446 2.449 2.449 0 002.445-2.446V5.186h3.174v1.512a2.449 2.449 0 002.446 2.446 2.449 2.449 0 002.446-2.446V5.186h1.318c.924 0 1.676.752 1.676 1.675v4.336H1.228V9.62A.614.614 0 000 9.62v21.2a2.907 2.907 0 002.904 2.904h21.844a10.305 10.305 0 006.905 2.648c2.214 0 4.326-.69 6.108-1.995a.615.615 0 00-.726-.99 9.047 9.047 0 01-5.382 1.757c-5.027 0-9.118-4.09-9.118-9.118 0-5.028 4.09-9.119 9.118-9.119.91 0 1.816.137 2.686.404l.051.016c3.695 1.165 6.381 4.624 6.381 8.698a9.134 9.134 0 01-2.063 5.777.615.615 0 10.95.779 10.342 10.342 0 00-2.126-15.065zM7.886 6.697c0 .672-.546 1.218-1.217 1.218A1.219 1.219 0 015.45 6.698V2.446c0-.671.546-1.218 1.217-1.218s1.217.546 1.217 1.218v4.252zm8.066 0a1.219 1.219 0 01-2.435 0v-4.25a1.22 1.22 0 011.217-1.218c.672 0 1.218.546 1.218 1.218v4.252zm8.065 0c0 .672-.546 1.218-1.217 1.218a1.219 1.219 0 01-1.217-1.217V2.446c0-.671.546-1.218 1.217-1.218s1.217.546 1.217 1.218v4.252zm8.066 0a1.219 1.219 0 01-2.435 0v-4.25a1.22 1.22 0 011.217-1.218c.672 0 1.218.546 1.218 1.218v4.252zM15.75 12.426h6.032v5.871H15.75v-5.87zm-8.49 20.07H2.905a1.677 1.677 0 01-1.675-1.675v-4.196h6.03v5.871zm0-7.1H1.23v-5.87h6.03v5.87zm0-7.099H1.23v-5.87h6.03v5.87zm1.23 1.229h6.031v5.87H8.49v-5.87zm6.032 12.97H8.489v-5.87h6.033v5.87zm0-14.199H8.489v-5.87h6.033v5.87zm1.228 1.229h6.032v3.398a10.283 10.283 0 00-.456 2.473H15.75v-5.871zm7.826 12.97H15.75v-5.87h5.574a10.211 10.211 0 002.252 5.87zm-.565-12.151v-.82h.6c-.213.264-.414.537-.6.82zm6.032-4.331a10.333 10.333 0 00-4.26 2.283h-1.772v-5.87h6.032v3.587zm7.26.768a10.29 10.29 0 00-1.801-.703l-.04-.012a10.345 10.345 0 00-4.19-.295v-3.346h6.032v4.356z" fill="#E9B33D"/></svg>