<svg xmlns="http://www.w3.org/2000/svg" width="191" height="94" fill="none"><g clip-path="url(#clip0_93_2174)" fill="#686868"><path d="M58.994 29.364h12.122v3.969h-5.767v27.883h-6.355V29.364zM78.302 49.26l1.09-15.926h.364l1.09 15.926h-2.544zm-7.038 11.957h6.223l.589-8.46h2.996l.592 8.46h6.22l-3.315-31.852h-9.99l-3.315 31.852zm25.722-11.148v6.005c0 .809.625 1.044.99 1.044.599 0 1.016-.496 1.016-1.044v-7.415c0-.992-.183-2.088-2.554-2.088h-2.58v-3.498h2.684c1.798 0 2.45-.418 2.45-2.377v-6.318c0-.548-.417-1.044-1.017-1.044-.364 0-.99.209-.99 1.044v5.196h-6.358v-4.517c0-2.22.26-5.691 4.716-5.691h5.264c4.456 0 4.743 3.472 4.743 5.691v5.09c0 3.473-2.424 4.413-4.326 4.335v.313c4.273-.104 4.326 3.185 4.326 4.308v6.423c0 2.245-.287 5.69-4.743 5.69h-5.264c-4.455 0-4.716-3.446-4.716-5.69v-5.457h6.359zm12.533-20.703h14.722v31.85h-6.358V33.334h-2.006v27.883h-6.358V29.364zm25.25 17.518v-13.55h.834c.677 0 1.172.574 1.172 1.593V45.29c0 1.019-.495 1.593-1.173 1.593h-.833zm-6.358 14.333h6.358V50.38h3.647c4.43 0 4.717-3.446 4.717-5.691v-9.634c0-2.22-.287-5.691-4.716-5.691h-10.006v31.85zm27.255-5.143c0 .548-.417 1.044-1.016 1.044-.365 0-.99-.235-.99-1.044V34.377c0-.835.625-1.044.99-1.044.599 0 1.016.496 1.016 1.044v21.696zm-8.364-.548c0 2.245.287 5.69 4.717 5.69h5.289c4.43 0 4.716-3.446 4.716-5.69V35.055c0-2.22-.286-5.691-4.716-5.691h-5.289c-4.43 0-4.717 3.472-4.717 5.691v20.469zm35.412-26.16H191v31.85h-6.358V41.245h-.234l-3.284 19.972h-5.081l-3.257-19.972h-.234v19.972h-6.358V29.364h8.26l4.143 22.4 4.117-22.4zM50.754 17.615C48.808 9.08 43.93 2.135 43.258 1.012c-1.063 1.592-4.954 7.728-6.931 14.516-2.16 7.597-2.479 14.332-1.733 20.938.74 6.631 3.536 13.445 3.536 13.445 1.485 3.55 3.71 7.389 5.16 9.268 2.123-2.767 7.003-11.017 8.525-21.773.847-6.005.883-11.252-1.06-19.79zM43.258 57.04c-.956-1.802-2.442-5.222-2.583-10.548-.036-5.117 2.015-9.53 2.614-10.443.534.914 2.3 4.752 2.512 10 .143 5.116-1.556 9.163-2.543 10.99zm6.931-24.933c-.073 3.263-.461 6.71-.956 8.772.177-3.55-.248-8.537-1.06-12.453-.814-3.89-3.115-10.417-4.952-13.42-1.696 2.872-3.786 8.511-4.88 13.394-1.1 4.882-1.131 10.808-1.131 12.584-.292-1.489-1.022-6.84-.816-12.193.172-4.412 1.204-8.98 1.77-11.07 2.157-6.97 4.599-11.434 5.057-12.14.459.706 3.534 6.214 5.128 11.984 1.587 5.77 1.908 11.304 1.84 14.542z"/><path d="M46.56 61.164h-14.8v9.947c.013 0 .024-.026.037-.026a8.912 8.912 0 0112.63 0c3.486 3.472 3.486 9.137 0 12.636-.016.026-.032.026-.047.052-.018 0-.037.026-.052.052a17.802 17.802 0 01-12.568 5.17c-4.565 0-9.13-1.724-12.611-5.222-6.14-6.135-6.867-15.665-2.187-22.61a18.08 18.08 0 012.187-2.662c3.48-3.498 8.046-5.222 12.611-5.222V29.365C14.22 29.365 0 43.593 0 61.164c0 17.57 14.22 31.825 31.761 31.825 9.146 0 17.386-3.89 23.18-10.078V61.164H46.56zM191 70.522H58.994v22.467H191V70.522zm-11.415 15.684h1.675v-3.391h-1.675v3.391zm0-5.934h2.535l1.696.847.419.848.419 1.696v.847c-.044 6.075-3.945 3.851-8.044 4.24V74.76h2.975v5.511zm-22.014-5.511v2.543h-2.115V88.75h-3.372V77.304h-2.115v-2.543h7.602zm-30.873 10.174h.419l.837-.425v-5.934h-1.256v6.359zm-3.393-6.359h-1.279v5.934l.86.424h.419v-6.358zm3.393-3.815v1.271h2.116l1.256.848.859.848.419 1.696v4.663l-.419 1.695-.859.848-1.256.848h-2.116v1.272h-3.393v-1.272h-2.116l-1.278-.848-.837-.847-.419-1.696v-4.663l.418-1.696.838-.848 1.278-.848h2.116v-1.271h3.393zm-27.51 0v2.543H96.65v2.968h2.538v2.543H96.65v3.391h2.961v2.544h-6.346V74.76h5.923zm-30.463 5.51h1.693v-5.51h2.961V88.75h-2.962v-5.935h-1.692v5.935H65.34V74.76h3.385v5.511z"/></g><defs><clipPath id="clip0_93_2174"><path fill="#fff" d="M0 0h191v94H0z"/></clipPath></defs></svg>