<svg width="33" height="33" fill="none" xmlns="http://www.w3.org/2000/svg"><path d="M28.167 4.833A16.392 16.392 0 0016.5 0 16.39 16.39 0 004.833 4.833 16.392 16.392 0 000 16.5c0 4.407 1.716 8.551 4.833 11.668A16.393 16.393 0 0016.5 33c4.407 0 8.551-1.716 11.667-4.832A16.394 16.394 0 0033 16.5a16.39 16.39 0 00-4.833-11.667zM16.5 28.778c-6.77 0-12.278-5.508-12.278-12.278C4.222 9.73 9.73 4.223 16.5 4.223c6.77 0 12.278 5.507 12.278 12.277S23.27 28.778 16.5 28.778z" fill="#E9B33D"/><path d="M16.5 6.171c-5.696 0-10.33 4.634-10.33 10.329s4.634 10.329 10.33 10.329c5.695 0 10.328-4.634 10.328-10.33 0-5.694-4.633-10.328-10.328-10.328zm7.015 11.303H16.5a.975.975 0 01-.975-.974V9.485a.974.974 0 011.949 0v6.04h6.04a.975.975 0 010 1.95z" fill="#E9B33D"/></svg>