<svg width="86" height="69" fill="none" xmlns="http://www.w3.org/2000/svg"><path fill-rule="evenodd" clip-rule="evenodd" d="M32.838 46.079v-1.114l5.86-2.748v1.065l-5.86 2.797zm0-4.422v-1.174l5.856-2.182v1.132l-5.856 2.224zm0-4.53v-1.1l5.856-1.802v1.158l-5.856 1.744zm.064-4.55l-.042-1.109 5.834-1.06v1.14l-5.792 1.029zm-.064-4.58v-1.086l5.858-.367v1.072l-5.858.381zm0-5.6l5.858.163v1.134l-5.858-.157v-1.14zm0-3.346V17.93l5.858.7v1.13l-5.858-.71zm0-4.563v-1.1l5.865 1.323v1.134l-5.865-1.357zm0-4.63V8.843l5.856 1.966v1.123L32.838 9.86zM31.834 49.03l7.886-3.865-.011-36.1-7.851-3.02-.024 42.985zm-4.718-4.272l3.909 3.942-.103-42.272-3.808 5.178.002 33.152zm26.41 2.98l-.046-39.19.795.53.084 38.223-.833.437zm1.743-.916L55.216 9.71l.735.5.08 36.2-.762.413zm1.602-35.99l.661.439v34.364l-.669.367.008-35.17zm-4.509 39.134l5.9-3.089-.025-36.298-5.866-3.953-.009 43.34zm6.598-6.919l4.31 3.413-.05-28.968-4.283 2.594.022 22.961zm-36.025.804l3.626-2.819-.031-19.028-3.558-2.08-.037 23.927zM44.15 1.024l-.085 4.184-1.936.709-.023 3.768-1.45.53v1.765l10.778-3.697V6.268l-2.09.766-.093-3.731-2.206.804L46.96 0l-2.81 1.024zm19.81 42.023l2.68-1.41.084-17.846-2.664-2.044-.1 21.3zM40.654 21.186v2.15l10.78-.893v-3.052l-10.78 1.796zm-.004 17.282l10.784 2.84v-3.15l-10.782-1.744-.002 2.054zm.002-3.633l10.782 1.8v-3.218l-10.784-.916.002 2.334zm.002-9.895l-.011 2.268 10.79-.02V24.03l-10.78.909zm-.006 6.03l10.788.916v-3.127l-10.773-.024-.015 2.235zm.004 11.322l10.782 3.63v-3.009L40.65 40.186l.002 2.106zm.002-24.862v2.154l10.782-1.832v-3.098L40.654 17.43zm0-3.783v2.16l10.78-2.787V9.95l-10.78 3.697zm-.004 31.631l10.784 4.679V47.59l-10.786-3.627.002 1.315zm-18.298-6.895V37.13l-2.993-.826v.722l2.993 1.357zM19.36 26.724l2.994-1.176v-1.25l-2.995 1.59.002.836zm2.994 13.759V39.23l-2.995-1.13v.803l2.995 1.579zm-.002-4.179V34.9l-2.991-.408v1.018c.58.161 2.427.662 2.993.795h-.002zm-2.992-6.079l2.994-.447v-1.18l-2.995.643.002.984zm-.001 3.491l2.993.452V32.79l-2.991-.051-.002.978zm-.002-2.711V32l2.992.019V30.7l-2.992.305zm.006-2.48l2.99-.82v-1.307l-2.992 1.209.002.918zm-.003-3.521l2.992-1.57v-.786l-2.991 1.609v.747zm2.994 17.36V41.31l-2.993-1.633v.603l2.993 2.083zM5.845 58.465H3.751v-2.242l-.688-.833h-.281l-.688.833v9.855l.688.834h.281l.688-.834v-4.997h2.094v5.862l-2.032 2.055H2.052L0 66.947v-11.59l2.061-2.052h1.752l2.023 2.054.009 3.106zm3.852 0H7.61v-5.129h9.47v5.13h-2.093v-3.047h-1.613v11.493h1.14v2.086h-4.372v-2.086h1.14V56.819l1.406-1.4H9.697v3.046zm35.237 0H42.84v-5.129h9.47v5.13h-2.093v-3.047h-1.61v11.493h1.14v2.086h-4.38v-2.086h1.141V56.819l1.405-1.4h-2.979v3.046zM22.47 55.39v.03h-.936v5.745h.938l.687-.833v-4.109l-.687-.833h-.002zm-3.03.03h-.502v-2.087h2.504l.022-.028h1.76l2.022 2.054v5.85l-2.022 2.052h-1.695v3.653h1.735V69h-4.326v-2.088h.504V56.786l1.373-1.369-1.375.002zm38.267-.03v.03h-.934v5.745h.938l.688-.833v-4.109l-.688-.833h-.004zm-3.03.03h-.5v-2.087h2.502l.028-.03h1.761l2.023 2.054v5.85l-2.023 2.052h-1.702v3.653H58.5v2.086h-4.323v-2.086h.502V56.786l1.373-1.369-1.375.002zm13.856 13.578h-6.222v-2.086h.496V56.767l1.356-1.348H62.31v-2.086h6.222v3.872h-2.096V55.42h-1.535v3.297h2.56v2.087h-2.56v6.109h1.535v-3.884h2.096v5.97zM86 66.912v2.086h-6.897v-2.086h.5V55.344h.032l1.998-2.015h3.784v13.58l.583.003zm-4.299-10.698v10.698h1.626V55.41l-.97.01-.656.794zM38.049 66.912v2.086h-2.931v-2.086h.419V56.837l1.42-1.414h-1.84v-2.09h2.932v2.086h-.418v3.072l1.655-1.649v-1.42h-.416v-2.09h2.924v2.087h-.416v11.493h.416v2.086H38.87v-2.086h.416v-7.617l-1.655 1.649v5.966l.418.002zm35.492 0v2.086h-2.928v-2.086h.417V56.665l1.25-1.246h-1.668v-2.086h2.93v2.086h-.412v3.453h1.654v-3.453h-.413v-2.086h2.921v2.086h-.413v11.493h.413v2.086h-2.921v-2.086h.413v-5.954H73.13v5.954h.412zM31.145 56.223l-.688-.833h-.281l-.688.833v9.855l.688.834h.28l.689-.834v-9.855zm-3.751-.866l2.022-2.015v-.037h1.923v.154l1.892 1.898v11.59l-1.906 1.9v.151h-1.916v-.044l-2.023-2.015.008-11.582zm11.096-4.699a1.002 1.002 0 01.924.615.993.993 0 01-.729 1.36 1.004 1.004 0 01-1.027-.425.994.994 0 01.832-1.55z" fill="#E9B33D"/></svg>