<svg xmlns="http://www.w3.org/2000/svg" width="189" height="63" fill="none"><rect x="6.508" width="182" height="57" rx="28.5" fill="#fff"/><path fill-rule="evenodd" clip-rule="evenodd" d="M25.354 0C11.36 0 0 11.36 0 25.354c0 6.102 3.818 13.425 8.553 19.952 6.774 9.343 15.246 17.09 15.246 17.09a2.305 2.305 0 003.11 0s8.471-7.747 15.246-17.09c4.734-6.527 8.553-13.85 8.553-19.952C50.708 11.36 39.348 0 25.354 0zm0 12.293c-7.208 0-13.061 5.853-13.061 13.06 0 7.209 5.853 13.062 13.06 13.062 7.209 0 13.062-5.853 13.062-13.061s-5.853-13.061-13.061-13.061z" fill="#151515"/><path d="M25.356 33.805a8.451 8.451 0 100-16.903 8.451 8.451 0 000 16.903z" fill="#E9B33D"/></svg>