<svg width="35" height="39" fill="none" xmlns="http://www.w3.org/2000/svg"><path d="M27.928 23.462L21.33 22.18v-1.63c1.853-1.264 2.856-3.054 3.074-5.065a1.873 1.873 0 001.721-1.864v-1.338c1.568-.682 1.357-2.97-.302-3.356V8.41A8.41 8.41 0 0017.413 0h-.704a8.409 8.409 0 00-8.41 8.409v.517c-1.657.385-1.87 2.674-.302 3.356v1.338c0 .981.76 1.788 1.721 1.864.19 1.754 1.013 3.36 2.31 4.477.243.21.499.406.765.588v1.63l-6.599 1.284C2.714 24.14 0 26.101 0 29.722v6.623A2.654 2.654 0 002.654 39h28.815a2.654 2.654 0 002.654-2.654v-6.623c0-3.61-2.697-5.58-6.195-6.26zm-5.42.273l-1.976 2.867c-.319.461-.89.52-1.113.386l-1.028-.617c1.003-.592 2.391-1.61 2.812-2.89l1.305.254zm-5.447 1.877c-.989-.498-2.96-1.728-2.966-2.89v-1.454a7.477 7.477 0 005.932 0v1.448c0 1.165-1.976 2.397-2.966 2.896zM9.602 8.409a7.111 7.111 0 013.666-6.217v.817c0 .86 1.302.862 1.302 0V1.63a7.062 7.062 0 011.84-.322v3.22c0 .86 1.302.862 1.302 0v-3.22a7.064 7.064 0 011.84.322v1.378c0 .86 1.302.862 1.302 0v-.817A7.112 7.112 0 0124.52 8.41v.47H9.602v-.47zm-.9 1.773H25.42c.625 0 .624.943 0 .943H8.703c-.624 0-.624-.943 0-.943zm2.277 4.643a.651.651 0 00-.651-.637c-.109-.027-1.029.169-1.029-.568v-1.192h15.524v1.192c0 .736-.945.547-1.029.568a.651.651 0 00-.651.637c-.035 1.628-.727 3.14-1.898 4.149-2.487 2.141-5.88 2.142-8.368 0-1.171-1.01-1.863-2.521-1.898-4.15zm1.94 8.657c.421 1.28 1.81 2.297 2.813 2.89-1.031.551-.958.716-1.427.661a1.027 1.027 0 01-.72-.438l-1.97-2.86 1.304-.253zM5.405 37.697H2.653a1.351 1.351 0 01-1.351-1.352v-6.623c0-1.952.886-3.301 2.831-4.233.079.347 1.272 3.585 1.272 8.11v4.098zm11.005 0H6.708V33.6c0-4.903-1.238-8.06-1.36-8.595.76-.253.196-.058 4.872-1a1117.37 1117.37 0 005.332 7.7c.561.798.858 1.735.858 2.71v3.282zm.651-6.005a6.134 6.134 0 00-.444-.737c-.5-.71-1.149-1.642-1.826-2.62.205-.045.402-.123.582-.231l1.688-1.012 1.688 1.012c.18.108.377.186.582.232-.677.976-1.326 1.908-1.826 2.62a6.082 6.082 0 00-.444.736zm15.759 4.653c0 .747-.605 1.352-1.351 1.352h-2.752V35.24c0-.861-1.303-.862-1.303 0v2.457h-9.702v-3.281c0-.976.297-1.913.858-2.711a1223.15 1223.15 0 005.332-7.7c4.674.941 4.11.747 4.872 1-.095.4-1.19 3.378-1.342 7.603-.03.863 1.271.905 1.302.047.146-4.088 1.15-6.719 1.255-7.166 1.944.932 2.831 2.281 2.831 4.232v6.624z" fill="#101010"/></svg>