<svg width="43" height="32" fill="none" xmlns="http://www.w3.org/2000/svg"><path d="M15.85 30.698v-2.475m11.218-8.662H42v-2.474H1v2.474h4.331c1.025 0 1.856.831 1.856 1.857v4.95a1.856 1.856 0 01-1.856 1.855H1v2.475h41v-2.475H11.518a1.856 1.856 0 01-1.856-1.856v-4.95c0-1.025.831-1.856 1.856-1.856h13.076m-8.745 0v-2.474m0-2.475v-2.475m11.22-8.662H42V1H1v2.475h4.331c1.025 0 1.856.83 1.856 1.856v4.95a1.856 1.856 0 01-1.856 1.856H1v2.475h41v-2.475H11.518a1.856 1.856 0 01-1.856-1.856V5.33c0-1.025.831-1.856 1.856-1.856h13.076" stroke="#151515" stroke-width="1.2" stroke-miterlimit="10" stroke-linecap="round" stroke-linejoin="round"/><path d="M37.669 12.137a1.856 1.856 0 01-1.857-1.856V5.33c0-1.025.832-1.856 1.857-1.856m0 24.748a1.856 1.856 0 01-1.857-1.856v-4.95c0-1.025.832-1.856 1.857-1.856M15.849 3.475V1" stroke="#151515" stroke-width="1.2" stroke-miterlimit="10" stroke-linecap="round" stroke-linejoin="round"/></svg>