<svg width="42" height="40" fill="none" xmlns="http://www.w3.org/2000/svg"><path d="M40.642 33.398l-10.11-10.11a1.134 1.134 0 00-.808-.336c-.169 0-.33.037-.478.105l-2.228-2.227a.622.622 0 00-.879.88l2.177 2.176-1.198 1.199-1.2 1.199-.514-.514a.66.66 0 00-.02-.019l-1.643-1.644a.621.621 0 10-.88.88l1.663 1.662a.66.66 0 00.019.018l.547.547c-.193.422-.118.938.229 1.285l7.293 7.294a.622.622 0 00.88-.88l-7.222-7.222 3.453-3.453 10.04 10.04c.468.467.721 1.09.713 1.755a2.425 2.425 0 01-.755 1.739c-.951.907-2.5.87-3.452-.081l-1.193-1.195a.622.622 0 00-.88.88l1.193 1.194a3.767 3.767 0 002.666 1.1c.915 0 1.825-.332 2.524-.998a3.659 3.659 0 001.141-2.625 3.658 3.658 0 00-1.078-2.65zM25.152 2.307c-2.672-1.569-5.9-1.58-8.636-.028a.622.622 0 10.613 1.082c1.983-1.124 4.265-1.293 6.302-.508-2.57 1.435-5.031 3.742-6.318 5.564L14.4 5.7l1.094-1.094a.622.622 0 00-.879-.88L13.52 4.82l-.73-.73a.622.622 0 00-.88 0L6.193 9.807a.622.622 0 00-.005.875.861.861 0 01.155.217c.255.506.05 1.262-.487 1.8-.534.533-1.264.737-1.78.494a.842.842 0 01-.235-.162.622.622 0 00-.876.004L.182 15.818a.622.622 0 000 .88l6.065 6.064a.622.622 0 00.88 0l2.782-2.782a.622.622 0 00.007-.872.857.857 0 01-.158-.226c-.246-.504-.039-1.256.492-1.787.535-.535 1.29-.74 1.797-.49.08.04.153.093.217.155a.622.622 0 00.872-.007l.746-.746 3.176 3.175a.62.62 0 00.879 0 .622.622 0 000-.88l-3.176-3.174 2.399-2.398 3.175 3.175a.622.622 0 10.88-.88l-3.176-3.175.813-.813a.62.62 0 000-.88l-.846-.846c1.314-1.964 4.308-4.668 7.082-5.9a.622.622 0 00.063-1.104zM6.686 21.443L1.5 16.257l1.903-1.902 5.186 5.186-1.903 1.902zm2.684-5.228a3.304 3.304 0 00-.868 1.48l-3.25-3.25a3.3 3.3 0 001.481-.866 3.27 3.27 0 00.9-1.65l3.387 3.386a3.27 3.27 0 00-1.65.9zm3.427-.882l-5.186-5.186 4.738-4.738 5.183 5.188-4.735 4.736z" fill="#101010"/><path d="M37.868 1.577a.622.622 0 00-1.02.268l-1.036 3.322a1.81 1.81 0 01-3 .742 1.802 1.802 0 01-.448-1.817L33.389.807a.622.622 0 00-.694-.799 6.066 6.066 0 00-3.037 1.43A6.078 6.078 0 0027.8 7.686c.354 1.264.013 2.61-.89 3.512L11.803 26.306c-.76.76-1.743 1.345-2.842 1.69a6.112 6.112 0 00-2.481 1.507 6.064 6.064 0 00-1.79 4.418 6.071 6.071 0 001.932 4.365.622.622 0 001.02-.268l1.036-3.324a1.794 1.794 0 01.885-1.061 1.795 1.795 0 011.377-.125 1.802 1.802 0 011.186 2.262l-1.024 3.285a.622.622 0 00.694.799 6.065 6.065 0 003.035-1.43 6.08 6.08 0 001.858-6.249c-.353-1.263-.012-2.608.89-3.51l1.157-1.157a.622.622 0 00-.879-.88l-.717.717-2.309-2.309L27.35 12.517l2.309 2.31-10.307 10.306a.622.622 0 10.88.88l12.456-12.457c.76-.76 1.743-1.345 2.842-1.69a6.129 6.129 0 002.48-1.507 6.063 6.063 0 001.79-4.42 6.068 6.068 0 00-1.932-4.362zM16.29 28.254a4.86 4.86 0 00-.798 4.256 4.846 4.846 0 01-1.482 4.98c-.41.36-.877.647-1.382.85l.685-2.2a3.043 3.043 0 00-2.003-3.82 3.03 3.03 0 00-2.324.212 3.03 3.03 0 00-1.495 1.792l-.704 2.258a4.83 4.83 0 01-.853-2.68 4.83 4.83 0 011.425-3.52 4.863 4.863 0 011.975-1.199c1.29-.406 2.447-1.097 3.348-1.998l1.27-1.27 2.338 2.34zM37.13 9.48c-.56.56-1.224.964-1.974 1.2-1.289.406-2.446 1.096-3.348 1.998l-1.27 1.27-2.338-2.339a4.864 4.864 0 00.798-4.257 4.843 4.843 0 011.481-4.98 4.81 4.81 0 011.384-.849l-.686 2.199a3.042 3.042 0 002.002 3.82A3.054 3.054 0 0037 5.538l.704-2.257c.54.782.838 1.705.853 2.678a4.83 4.83 0 01-1.425 3.52z" fill="#101010"/></svg>