<svg width="48" height="36" fill="none" xmlns="http://www.w3.org/2000/svg"><path d="M46.908 34.272H43.76a3.863 3.863 0 00-.091-5.055c-.023-.025-.033-.059-.026-.084.095-.322.136-.659.119-.994-.066-1.319-1.028-2.44-2.279-2.747V12.554l1.564.576a1.163 1.163 0 001.491-.688l1.127-3.054a1.153 1.153 0 00-.036-.889 1.153 1.153 0 00-.653-.603L33.514 3.67a.697.697 0 00-.482 1.309l11.243 4.145-.965 2.617-19.266-7.103a.698.698 0 00-.483 0L4.296 11.741 3.33 9.124l19.99-7.37c.312-.114.654-.114.965 0l6.216 2.292a.698.698 0 00.483-1.309L24.768.446a2.792 2.792 0 00-1.93 0L15.64 3.099V.971A.972.972 0 0014.67 0h-3.29a.972.972 0 00-.97.97v4.058L2.63 7.896c-.602.222-.91.89-.689 1.492l1.126 3.055a1.164 1.164 0 001.492.688l1.563-.577v6.42a.697.697 0 101.395 0V12.04l16.286-6.004 16.286 6.004v13.35c-.5.119-.96.366-1.345.728a2.993 2.993 0 00-.824 2.986c.006.021.017.076-.019.116a3.846 3.846 0 00-.975 2.844c.056.836.38 1.6.888 2.208H26.728v-2.12a.697.697 0 10-1.394 0v2.12h-3.062v-6.835a4.055 4.055 0 00-1.53-3.196 4.899 4.899 0 01-1.861-3.855c0-1.34.538-2.597 1.474-3.513v2.68c0 .404.206.774.55.987l2.286 1.416a1.155 1.155 0 001.224 0L26.7 20.54a1.154 1.154 0 00.55-.988v-2.679a4.902 4.902 0 011.474 3.513 4.9 4.9 0 01-1.862 3.855 4.055 4.055 0 00-1.53 3.196v2.02a.697.697 0 101.396 0v-2.02a2.67 2.67 0 011.002-2.105 6.286 6.286 0 002.389-4.946 6.3 6.3 0 00-2.888-5.305.89.89 0 00-1.25.295.893.893 0 00-.126.456v3.59l-2.053 1.273-2.053-1.272v-3.59a.894.894 0 00-1.376-.752 6.298 6.298 0 00-2.888 5.305c0 1.937.87 3.74 2.389 4.947a2.668 2.668 0 011.002 2.104v6.835H9.794c.573-.69.895-1.57.895-2.474a3.86 3.86 0 00-.987-2.581c-.022-.025-.033-.059-.025-.084.095-.322.135-.659.118-.994-.065-1.319-1.027-2.44-2.278-2.747v-3.721a.697.697 0 10-1.395 0v3.719c-.499.119-.96.366-1.344.728a2.991 2.991 0 00-.824 2.986c.006.021.017.076-.02.116a3.846 3.846 0 00-.974 2.844c.056.836.38 1.6.888 2.208H.698a.697.697 0 100 1.395h46.21a.697.697 0 100-1.395zM11.804 1.395h2.442v2.218l-2.442.9V1.396zm-6.83 28.754c.346-.387.466-.92.322-1.427a1.582 1.582 0 01.438-1.588c.985-.928 2.603-.26 2.668 1.073.01.179-.012.358-.063.53a1.494 1.494 0 00.324 1.41 2.47 2.47 0 01.631 1.65c0 .694-.28 1.336-.786 1.81-1.521 1.42-4.018.43-4.157-1.637a2.462 2.462 0 01.623-1.82zm33.343 1.822a2.462 2.462 0 01.624-1.822c.345-.386.465-.92.32-1.427a1.58 1.58 0 01-.06-.434c0-.442.178-.851.499-1.154.986-.93 2.603-.258 2.668 1.073a1.59 1.59 0 01-.062.53 1.494 1.494 0 00.324 1.41 2.47 2.47 0 01.63 1.65 2.45 2.45 0 01-.786 1.81c-1.512 1.41-4.017.443-4.157-1.636z" fill="#E9B33D"/><path d="M22.042 12.313h3.521a.697.697 0 100-1.395h-3.52a.697.697 0 100 1.395z" fill="#E9B33D"/></svg>