<svg width="44" height="41" fill="none" xmlns="http://www.w3.org/2000/svg"><path d="M34.45 33.817a.633.633 0 000 1.266h8.115a.633.633 0 100-1.266h-6.13V29.04a.633.633 0 00-.633-.633h-8.16V27.01a.633.633 0 00-1.265 0v1.397H10.058v-4.145h7.166a.633.633 0 000-1.266H.633a.633.633 0 000 1.266h8.16v4.145H.632A.633.633 0 000 29.04v5.41a.633.633 0 00.633.633h1.352a.633.633 0 000-1.266h-.72v-4.145h16.32v4.145H4.69a.633.633 0 000 1.266h4.101v4.145H.632a.633.633 0 100 1.266h41.933a.633.633 0 000-1.266H27.643v-4.145h4.101a.633.633 0 000-1.266H18.85v-4.145h16.32v4.145h-.72zm-8.073 1.266v4.145H10.058v-4.145h16.32z" fill="#101010"/><path d="M21.005 27.045a2 2 0 00.835-.184l12.61-5.794a1.987 1.987 0 00.575-3.208l-2.96-2.96.748-.749a1.649 1.649 0 000-2.33.382.382 0 010-.54l.822-.821a1.982 1.982 0 002.285-.372l6.699-6.699a1.97 1.97 0 00.58-1.402A1.985 1.985 0 0039.81.58l-6.699 6.7a1.986 1.986 0 00-.371 2.284l-.822.822a1.637 1.637 0 00-.483 1.165 1.64 1.64 0 00.483 1.165.382.382 0 010 .54l-.748.747-2.961-2.96a1.986 1.986 0 00-3.208.575l-5.794 12.61a1.968 1.968 0 00.4 2.232 1.97 1.97 0 001.398.585zm19.7-25.57a.711.711 0 01.506-.21.724.724 0 01.723.72.713.713 0 01-.21.508l-4.815 4.815L35.89 6.29l4.815-4.815zm-6.698 6.7l.989-.99 1.018 1.018-.99.989a.717.717 0 01-1.014 0l-.003-.004a.717.717 0 010-1.014zm-13.65 16.581l5.794-12.61a.711.711 0 01.658-.42.71.71 0 01.505.211l2.96 2.961-4.812 4.813a.633.633 0 00.894.895l4.814-4.813 2.96 2.961c.17.169.242.4.2.636a.711.711 0 01-.408.527l-12.61 5.794a.703.703 0 01-.81-.145.703.703 0 01-.145-.81z" fill="#101010"/></svg>