<?xml version="1.0" encoding="utf-8"?><svg viewBox="0 0 28 28" xmlns="http://www.w3.org/2000/svg" xmlns:xlink="http://www.w3.org/1999/xlink"><style>:root>svg{display:none}:root>svg:target{display:block}</style><svg fill="none" viewBox="0 0 28 28" id="icon-phone" xmlns="http://www.w3.org/2000/svg"><path d="M28 14c0-2.683-.117-5.133-.583-6.533-.467-1.634-1.05-3.15-2.45-4.55-1.75-1.634-3.267-2.1-5.6-2.567A38.417 38.417 0 0014.583 0h-1.05c-1.283 0-3.15.117-4.9.35C6.3.817 4.667 1.4 3.033 2.917c-1.516 1.4-1.983 2.916-2.45 4.55C.117 8.867 0 11.317 0 14c0 2.683.117 5.133.583 6.533.467 1.634 1.05 3.15 2.45 4.55 1.75 1.634 3.267 2.1 5.6 2.567C10.5 28 12.833 28 14 28c1.167 0 3.5 0 5.483-.35 2.217-.467 3.85-.933 5.6-2.567 1.4-1.283 1.984-2.8 2.45-4.55.35-1.4.467-3.85.467-6.533z" fill="currentColor"/><path d="M21.7 17.85v3.033c0 .467-.35.817-.816.817h-.934C12.484 21.7 6.3 15.517 6.3 8.05v-.933c.117-.467.467-.817.817-.817h3.033c.234 0 .35.117.467.467 0 .116 0 .233.117.466a8.8 8.8 0 001.05 3.384c.116.116 0 .35-.117.466L9.8 12.25c1.05 2.683 3.267 4.667 5.834 5.833l1.283-1.866c.117-.117.35-.117.467-.117 1.05.467 2.216.817 3.383 1.05.117 0 .233 0 .467.117.233.116.466.466.466.583z" fill="#151515"/></svg></svg>