<?xml version="1.0" encoding="utf-8"?><svg viewBox="0 0 47 47" xmlns="http://www.w3.org/2000/svg" xmlns:xlink="http://www.w3.org/1999/xlink"><style>:root>svg{display:none}:root>svg:target{display:block}</style><svg fill="none" viewBox="0 0 47 47" id="icon-arrow-back" xmlns="http://www.w3.org/2000/svg"><circle cx="23.5" cy="23.5" r="23.5" transform="matrix(-1 0 0 1 47 0)" fill="currentColor"/><path d="M24.302 18H21.71l-5.4 5.4 5.4 5.4h2.592l-4.464-4.464H29v-1.872h-9.162L24.302 18z" fill="#151515"/></svg><svg fill="none" viewBox="0 0 40 40" id="icon-arrow-more" xmlns="http://www.w3.org/2000/svg"><circle cx="20" cy="20" r="20" fill="currentColor"/><path d="M18.698 15h2.592l5.4 5.4-5.4 5.4h-2.592l4.464-4.464H14v-1.872h9.162L18.698 15z" fill="#151515"/></svg><svg fill="none" viewBox="0 0 27 27" id="icon-check" xmlns="http://www.w3.org/2000/svg"><path d="M10.81 18.125h0l.002.002c.1.1.204.178.324.232a.913.913 0 001.14-.335l8.539-9.383.092-.092.005-.005.004-.006c.16-.213.21-.5.172-.766-.038-.266-.166-.528-.38-.688-.213-.16-.5-.21-.766-.172-.265.038-.525.164-.685.376l-7.812 8.555L7.67 11.79h0l-.002-.003a1.008 1.008 0 00-1.456 0 1.008 1.008 0 00-.001 1.455l4.6 4.882z" fill="#151515" stroke="#151515" stroke-width=".2"/></svg><svg fill="none" viewBox="0 0 25 25" id="icon-close" xmlns="http://www.w3.org/2000/svg"><path d="M23.756 25a1.24 1.24 0 01-.879-.365L.365 2.125a1.245 1.245 0 011.76-1.76l22.513 22.512a1.244 1.244 0 01-.88 2.123h-.002z" fill="currentColor"/><path d="M1.246 25a1.244 1.244 0 01-.881-2.123L22.877.365a1.245 1.245 0 011.761 1.76L2.126 24.638a1.242 1.242 0 01-.88.362z" fill="currentColor"/></svg><svg fill="none" viewBox="0 0 28 28" id="icon-phone" xmlns="http://www.w3.org/2000/svg"><path d="M28 14c0-2.683-.117-5.133-.583-6.533-.467-1.634-1.05-3.15-2.45-4.55-1.75-1.634-3.267-2.1-5.6-2.567A38.417 38.417 0 0014.583 0h-1.05c-1.283 0-3.15.117-4.9.35C6.3.817 4.667 1.4 3.033 2.917c-1.516 1.4-1.983 2.916-2.45 4.55C.117 8.867 0 11.317 0 14c0 2.683.117 5.133.583 6.533.467 1.634 1.05 3.15 2.45 4.55 1.75 1.634 3.267 2.1 5.6 2.567C10.5 28 12.833 28 14 28c1.167 0 3.5 0 5.483-.35 2.217-.467 3.85-.933 5.6-2.567 1.4-1.283 1.984-2.8 2.45-4.55.35-1.4.467-3.85.467-6.533z" fill="currentColor"/><path d="M21.7 17.85v3.033c0 .467-.35.817-.816.817h-.934C12.484 21.7 6.3 15.517 6.3 8.05v-.933c.117-.467.467-.817.817-.817h3.033c.234 0 .35.117.467.467 0 .116 0 .233.117.466a8.8 8.8 0 001.05 3.384c.116.116 0 .35-.117.466L9.8 12.25c1.05 2.683 3.267 4.667 5.834 5.833l1.283-1.866c.117-.117.35-.117.467-.117 1.05.467 2.216.817 3.383 1.05.117 0 .233 0 .467.117.233.116.466.466.466.583z" fill="#151515"/></svg></svg>